<svg width="169" height="169" viewBox="0 0 169 169" fill="none" xmlns="http://www.w3.org/2000/svg">
<g clip-path="url(#clip0_7432_2)">
<path d="M0 56.1056C0 9.90451 9.90451 0 56.1056 0H112.889C159.095 0 168.995 9.90451 168.995 56.1056V112.889C168.995 159.095 159.091 168.995 112.889 168.995H56.1056C9.90451 169 0 159.095 0 112.889V56.1056Z" fill="#676E90"/>
<g clip-path="url(#clip1_7432_2)">
<path d="M108.332 124.637L99.3635 129.435L123.834 139.963C123.834 139.963 131.081 135.729 131.584 135.055C132.088 134.381 136.134 126.248 136.134 126.248L108.325 124.637H108.332Z" fill="#FFE3E3"/>
<path d="M136.142 103.962C136.142 88.2327 113.531 79.0237 85.641 79.0237C57.7512 79.0237 35.1404 88.2327 35.1404 103.962C35.1404 117.735 57.7512 128.901 85.641 128.901C113.531 128.901 136.142 117.735 136.142 103.962Z" fill="#22232E"/>
<path d="M32.8363 113.083L31.7791 116.951C31.7791 116.951 36.3143 135.201 36.657 135.289C36.9997 135.377 53.1795 137.164 53.1795 137.164L77.8684 140.579C77.8684 140.579 126.05 142.359 126.386 142.19C126.721 142.022 129.353 136.571 129.776 136.146C130.199 135.721 138.643 119.142 138.643 119.142L138.089 115.244C138.089 115.244 119.014 108.731 118.504 108.731H99.7792C98.8459 108.731 57.9189 109.156 57.9189 109.156L32.8363 113.091V113.083Z" fill="#22232E"/>
<path d="M138.643 119.135C129.28 117.772 119.153 119.611 108.332 124.637C116.994 124.168 126.634 127.062 130.418 131.626C124.293 127.714 109.944 127.582 99.3709 129.435C93.319 132.798 85.2109 136.879 77.8684 140.579C101.69 149.209 124.104 150.711 132.62 142.996C137.877 138.227 139.882 130.227 138.635 119.142L138.643 119.135Z" fill="#FFE3E3"/>
<path d="M62.8553 119.677C66.2531 118.922 69.7676 118.3 73.355 117.823C86.9462 116.014 100.632 116.424 111.992 118.952C121.092 115.486 129.856 114.248 138.089 115.237C137.622 112.468 136.98 109.53 136.149 106.424C136.091 106.211 136.069 105.984 136.091 105.757C137.301 92.8629 123.491 85.2363 107.756 81.7856C107.727 81.9688 107.69 82.152 107.654 82.3278C107.129 81.727 106.502 92.416 105.751 91.9984C105.773 92.0057 105.729 91.9764 105.671 91.9251L98.6563 91.8445C88.9441 91.7346 79.2392 91.6248 69.5269 91.5149C69.5999 91.6174 69.6655 91.7347 69.7384 91.8372C69.6582 91.8519 69.578 91.8665 69.4905 91.8738C66.6614 91.4269 63.5042 81.1263 61.5428 83.3901C61.448 83.0165 61.3459 82.6428 61.2803 82.2618C54.5138 83.9249 48.7682 86.2693 44.3714 89.1998C37.5976 93.7127 34.4696 99.2807 35.0748 105.742C35.104 106.021 35.0748 106.307 34.9727 106.57C34.1488 108.819 33.4342 110.988 32.8145 113.069C41.2725 112.695 52.7566 115.201 62.8334 119.662L62.8553 119.677Z" fill="#22232E"/>
<path d="M97.8252 125.933C100.508 124.329 103.148 122.893 105.758 121.64C84.0152 118.322 56.7305 122.468 39.8144 132.029C43.1174 127.252 49.5922 123.201 56.6066 121.23C47.7985 117.999 38.5311 116.365 31.7865 116.944C28.6584 129.553 29.6501 138.659 34.7833 143.538C41.9289 150.337 57.6201 149.253 77.8758 140.571C84.5985 134.784 91.1754 129.948 97.5554 126.102C97.6429 126.036 97.7377 125.977 97.8325 125.933H97.8252Z" fill="#FFE3E3"/>
<path d="M103.52 85.207L102.193 83.6392C99.9104 86.5843 94.4855 91.72 84.3796 91.7566C74.2736 91.72 68.8488 86.5843 66.5665 83.6392L65.2395 85.207C65.2395 85.207 70.1904 102.783 84.2775 102.988C84.2775 102.988 84.3431 102.988 84.3796 102.988C84.416 102.988 84.4452 102.988 84.4817 102.988C98.576 102.783 103.52 85.1996 103.52 85.1996V85.207Z" fill="#676E90"/>
<path d="M102.185 83.6392L97.5626 78.1812H71.1894L66.5667 83.6392C68.8416 86.577 74.2373 91.6834 84.2776 91.7566C84.2776 91.7566 84.3432 91.7566 84.3797 91.7566C84.4161 91.7566 84.4453 91.7566 84.4818 91.7566C94.5221 91.6834 99.9178 86.5697 102.193 83.6392H102.185Z" fill="#DEBFBF"/>
<path d="M63.5188 53.0595C63.5188 53.0595 63.4459 64.1661 64.1313 68.5252C64.6781 71.9831 68.3749 79.6683 72.2393 83.9249C72.757 84.4963 73.3549 84.9652 73.9966 85.3462V77.3313C73.9966 76.7452 74.1716 76.1737 74.5216 75.7049C76.9861 72.43 84.4817 72.7817 84.4817 72.7817V63.0745L63.5115 53.0522L63.5188 53.0595Z" fill="#FFE3E3"/>
<path d="M84.4892 69.1772C72.1885 69.1772 63.0231 58.8985 61.3971 45.9751C59.4795 30.8171 71.3135 21 84.4892 21V69.1772Z" fill="#FFE3E3"/>
<path d="M67.9447 60.9132C67.3905 56.0413 64.7802 52.0925 62.1115 52.0925C59.4428 52.0925 56.9783 56.0413 57.5325 60.9132C58.0866 65.7852 61.4407 69.734 64.1167 69.734C66.7926 69.734 68.4988 65.7852 67.952 60.9132H67.9447Z" fill="#FFE3E3"/>
<path d="M105.481 53.0595C105.481 53.0595 105.554 64.1661 104.869 68.5252C104.322 71.9831 100.625 79.6683 96.7607 83.9249C96.243 84.4963 95.6451 84.9652 95.0034 85.3462V77.3313C95.0034 76.7452 94.8284 76.1737 94.4784 75.7049C92.0139 72.43 84.5183 72.7817 84.5183 72.7817V63.0745L105.489 53.0522L105.481 53.0595Z" fill="#FFE3E3"/>
<path d="M94.471 73.4777C92.0065 70.2029 84.5109 70.1077 84.5109 70.1077L84.489 70.2908V70.1077C84.489 70.1077 77.0007 70.2029 74.5289 73.4777C74.1789 73.9466 74.0039 74.518 74.0039 75.1041V85.3535C75.1705 86.0422 76.5195 86.4158 77.8975 86.4158H91.1024C92.4878 86.4158 93.8294 86.0422 94.996 85.3535V75.1041C94.996 74.518 94.821 73.9466 94.471 73.4777Z" fill="#22232E"/>
<path d="M84.511 69.1772C96.8117 69.1772 105.977 58.8985 107.603 45.9751C109.513 30.8171 97.6794 21 84.511 21V69.1772Z" fill="#FFE3E3"/>
<path d="M101.048 60.9132C101.602 56.0413 104.212 52.0925 106.881 52.0925C109.55 52.0925 112.014 56.0413 111.46 60.9132C110.906 65.7852 107.552 69.734 104.876 69.734C102.2 69.734 100.494 65.7852 101.041 60.9132H101.048Z" fill="#FFE3E3"/>
<path d="M84.511 71.507C83.0309 71.507 81.6892 71.1553 80.5153 70.8403L80.1216 70.7377L81.033 67.1918L81.4413 67.3017C82.4549 67.5655 83.5048 67.8439 84.4892 67.8439C85.4735 67.8439 86.5454 67.5655 87.5589 67.3017L87.9672 67.1918L88.8786 70.7377L88.4849 70.8403C87.3037 71.148 85.9693 71.507 84.511 71.507Z" fill="#22232E"/>
<path d="M88.4264 74.5253H80.5735V78.1884H88.4264V74.5253Z" fill="#FFE3E3"/>
<path d="M83.7671 56.8472C83.7671 56.8472 87.3764 67.6387 93.0054 67.6387C98.6344 67.6387 103.52 63.58 103.52 63.58L87.4274 56.0706L83.7671 56.8472Z" fill="#22232E"/>
<path d="M106.247 52.0851L92.5608 54.9863L104.016 60.3345C104.446 57.9315 105.175 54.642 106.247 52.0925V52.0851Z" fill="#22232E"/>
<path d="M104.016 60.3271L92.5607 54.979L87.4348 56.0633L103.527 63.5727C103.527 63.5727 103.687 62.2246 104.023 60.3271H104.016Z" fill="#434761"/>
<path d="M85.2328 56.8472L64.7729 52.5174L83.3224 61.1697C84.5474 58.8692 85.2255 56.8472 85.2255 56.8472H85.2328Z" fill="#22232E"/>
<path d="M65.4801 63.5727C65.4801 63.5727 70.3654 67.6314 75.9944 67.6314C78.2329 67.6314 80.1505 65.9244 81.6526 63.8657L63.9343 55.6017C65.0135 59.5433 65.4801 63.58 65.4801 63.58V63.5727Z" fill="#22232E"/>
<path d="M64.7729 52.5174L62.7532 52.0925C63.2052 53.1694 63.599 54.3856 63.9344 55.6091L81.6526 63.873C82.287 63.0012 82.8484 62.0708 83.3297 61.177L64.7802 52.5247L64.7729 52.5174Z" fill="#434761"/>
</g>
</g>
<defs>
<clipPath id="clip0_7432_2">
<rect width="169" height="169" fill="white"/>
</clipPath>
<clipPath id="clip1_7432_2">
<rect width="109" height="127" fill="white" transform="translate(30 21)"/>
</clipPath>
</defs>
</svg>
