<?xml version="1.0" encoding="UTF-8"?>
<svg id="Layer_1" xmlns="http://www.w3.org/2000/svg" xmlns:xlink="http://www.w3.org/1999/xlink" version="1.1" viewBox="0 0 169 169">
  <!-- Generator: Adobe Illustrator 29.7.0, SVG Export Plug-In . SVG Version: 2.1.1 Build 138)  -->
  <defs>
    <style>
      .st0 {
        fill: none;
      }

      .st1 {
        fill: #f03b49;
      }

      .st2 {
        fill: #22232e;
      }

      .st3 {
        clip-path: url(#clippath);
      }
    </style>
    <clipPath id="clippath">
      <rect class="st0" width="169" height="169"/>
    </clipPath>
  </defs>
  <g class="st3">
    <path class="st1" d="M0,56.11C0,9.9,9.9,0,56.11,0h56.78c46.21,0,56.11,9.9,56.11,56.11v56.78c0,46.21-9.9,56.11-56.11,56.11h-56.78C9.91,169,0,159.1,0,112.89v-56.78Z"/>
  </g>
  <path class="st2" d="M135.67,111.19h0c0-.07-.01-.13-.02-.19-.4-2.95-1.04-6.1-1.93-9.47.51-6.62-2.85-12.42-9.76-16.8-5.29-3.35-12.48-5.79-20.94-7.14,4.34-4.49,7.05-10.8,7.05-17.79v-6.51c0-13.57-10.22-24.61-22.79-24.61s-22.78,11.04-22.78,24.61v6.51c0,7.13,2.82,13.56,7.32,18.06-8.07,1.44-14.9,3.91-19.89,7.22-6.51,4.32-9.69,9.97-9.22,16.37-5.94,16.39-5.7,27.79.73,33.89,7,6.63,20.9,6.02,39.17-1.71,9.36,3.52,20.47,6.68,30.16,6.68,6.66,0,12.66-1.49,16.97-5.38,5.38-4.85,7.36-12.83,5.92-23.75ZM67.66,54.09v-.8c0-11.83,8.8-21.45,19.62-21.45h0c10.82,0,19.62,9.62,19.62,21.45v1.08c.07.43.02.14,0,.58-.01.31.07.2.03.51-.04.31-.01.14-.03.45v1.35s0,2.55,0,2.55c0,7.2-3.27,13.6-8.27,17.49-.15.08-.28.18-.39.3-3.13,2.32-6.9,3.67-10.96,3.67s-7.66-1.29-10.74-3.51c-.1-.09-.2-.17-.31-.23-5.16-3.87-8.56-10.36-8.56-17.71v-2.55M75.03,80.55c3.54,2.45,7.74,3.87,12.25,3.87h0c4.64,0,8.95-1.5,12.55-4.08,1.28.16,2.57.35,3.85.58-.84,6.23-7.88,11.11-16.4,11.11s-15.29-4.72-16.34-10.78c1.33-.26,2.69-.49,4.09-.7ZM81.73,130.57c-16.98,7.24-30.13,8.15-36.12,2.48h0c-4.3-4.07-5.13-11.67-2.51-22.19,5.65-.48,13.42.88,20.8,3.58-5.88,1.64-11.21,3.76-15.63,6.25-.76.43-1.03,1.4-.6,2.16.29.52.83.8,1.38.8.26,0,.53-.07.78-.2,14.18-7.98,37.05-11.44,55.27-8.67-2.19,1.05-4.4,2.24-6.65,3.58-.08.04-.16.09-.23.14-5.34,3.21-10.86,7.24-16.49,12.07ZM127.62,132.58h0c-7.14,6.44-21.98,6-41.95-1.2,4.82-3.99,9.52-7.36,14.08-10.11,8.86-1.55,20.89-1.43,26.02,1.83.26.16.56.25.85.25.52,0,1.04-.26,1.34-.74.47-.74.25-1.72-.49-2.19-4.64-2.95-12.95-3.55-20.2-3.15,9.07-4.19,17.55-5.73,25.4-4.59,1.04,9.24-.64,15.92-5.04,19.89Z"/>
</svg>